<svg
  xmlns="http://www.w3.org/2000/svg"
  viewBox="0 0 240 60"
  width="240"
  height="80"
  fill="none"
>
  <!-- 잎사귀 심볼 -->
  <g transform="translate(4, 8)">
 
    <path
      d="M 28 2
         C 14 2, 4 14, 4 30
         C 4 40, 12 48, 24 48
         C 38 48, 48 36, 48 20
         C 48 10, 40 2, 28 2 Z"
      fill="#77af9c"
    />
   
    <path
      d="M 28 6
         C 18 6, 10 16, 10 28
         C 10 36, 16 42, 26 42
         C 36 42, 44 34, 44 22
         C 44 14, 38 6, 28 6 Z"
      fill="#8bc0ac"
      fill-opacity="0.5"
    />
    
    <path
      d="M 44 8 Q 26 26, 6 44"
      stroke="#3d6b5a"
      stroke-width="1.5"
      stroke-linecap="round"
    />
   
    <path
      d="M 44 8 L 48 4"
      stroke="#3d6b5a"
      stroke-width="2"
      stroke-linecap="round"
    />
  </g>

  <text
    x="68"
    y="40"
    font-family="'Pretendard', 'Inter', -apple-system, BlinkMacSystemFont, system-ui, sans-serif"
    font-size="30"
    font-weight="800"
    fill="#2d6a4f"
    letter-spacing="-1"
  >
    veganer
  </text>
</svg>
